# xmcd
#
# Track frame offsets:
#	150
#	4960
#	22257
#	35115
#	52597
#	67175
#	83220
#	93832
#	109365
#	120525
#	139985
#	157282
#	170647
#	187992
#	205012
#	218935
#	248575
#
# Disc length: 3384
#
# Revision: 3
# Processed by: cddbd v1.5.1PL0 Copyright (c) Steve Scherf et al.
# Submitted via: EasyCDDAExtractor 7.5.2.1
# Normalized: r2:DSETVAR1
#
DISCID=f60d3611
DTITLE=Various Artist - Farther Down The Road
DYEAR=1900
DGENRE=Country
TTITLE0=Various Artist - Introduction
TTITLE1=Chely Wright - Shut Up And Drive
TTITLE2=Tracy Byrd - Lifestyles Of The Not So Rich And Famous
TTITLE3=Reba McEntire - Forever Love
TTITLE4=Marty Stuart - Draggin' Around These Chains Of Love
TTITLE5=Terri Clark - You're Easy On The Eyes
TTITLE6=Mavericks - Think Of Me(When You're Lonely)
TTITLE7=Rebecca Lynn Howard - Out Here In The Water
TTITLE8=Patty Loveless - Chains
TTITLE9=Toby Keith - We Were In Love
TTITLE10=Shane Minor - I Think You're Beautiful
TTITLE11=Mark Chestnut - It Sure Is Monday
TTITLE12=Steve Wariner - I Got Dreams
TTITLE13=Vince Gill - Pretty Little Adriana
TTITLE14=Mark Wills - Jacob's Ladder
TTITLE15=George Strait - One Step At A Time
TTITLE16=Various Artist - Data Track
EXTD=
EXTT0=
EXTT1=
EXTT2=
EXTT3=
EXTT4=
EXTT5=
EXTT6=
EXTT7=
EXTT8=
EXTT9=
EXTT10=
EXTT11=
EXTT12=
EXTT13=
EXTT14=
EXTT15=
EXTT16=
PLAYORDER=
